<svg viewBox="0 0 160 41" fill="none" xmlns="http://www.w3.org/2000/svg">
<g clip-path="url(#clip0_10034_730)">
<path d="M20.876 1.79236e-10C29.9601 -3.93512e-07 34.5021 0.000385123 37.3242 2.82227C40.1463 5.64433 40.1465 10.1863 40.1465 19.2705V20.876C40.1465 29.9602 40.1463 34.5021 37.3242 37.3242C34.5021 40.1463 29.9601 40.1465 20.876 40.1465H19.2705C10.1864 40.1465 5.64435 40.1463 2.82227 37.3242C0.000302497 34.5021 4.00712e-07 29.96 2.15001e-10 20.876V19.2705C-4.00286e-07 10.1864 0.000255892 5.64438 2.82227 2.82227C5.64435 0.000336585 10.1864 3.93868e-07 19.2705 1.79236e-10H20.876ZM23.793 7.44238C22.5644 7.1355 21.373 8.05985 21.373 9.32031V11.6748L16.4717 10.4512C15.2431 10.1443 14.0518 11.0687 14.0518 12.3291V14.6855L9.15039 13.4609C7.92193 13.1543 6.73145 14.0795 6.73145 15.3398V28.4131C6.73145 29.5228 7.48961 30.4905 8.57129 30.7607L16.3516 32.7041C17.5801 33.011 18.7715 32.0866 18.7715 30.8262V28.4688L23.6729 29.6943C24.9012 30.0009 26.0915 29.0766 26.0918 27.8164V25.4609L30.9941 26.6855C32.2225 26.9921 33.413 26.0679 33.4131 24.8076V11.7334C33.4131 10.6237 32.6549 9.65591 31.5732 9.38574L23.793 7.44238Z" fill="currentColor"/>
<path d="M20.9863 29.0269C20.6456 28.9402 20.4032 28.6389 20.3913 28.2875L20.0528 18.3029C19.9549 16.9814 18.9739 15.9304 17.9489 15.6209C17.8913 15.6036 17.8298 15.627 17.7958 15.6765C17.7611 15.7268 17.7745 15.7964 17.8228 15.8339C18.076 16.0298 18.7727 16.6693 18.7727 17.7722L18.7706 28.4654L20.9863 29.0269Z" fill="currentColor"/>
<path d="M28.3096 26.0133C27.9692 25.9281 27.7264 25.6278 27.7146 25.277L27.376 15.2931C27.2781 13.9716 26.2972 12.9207 25.2721 12.6112C25.2146 12.5938 25.1531 12.6172 25.119 12.6667C25.0844 12.717 25.0978 12.7867 25.1461 12.8241C25.3992 13.02 26.0959 13.6595 26.0959 14.7624L26.0939 25.4593L28.3096 26.0133Z" fill="currentColor"/>
<path d="M63.258 23.0645C66.2982 22.2894 68.296 19.9641 68.296 16.9212C68.296 13.1605 65.2845 10.5195 61.0573 10.5195H53.5293V30.758H57.0038V23.3229H59.4651L64.8502 30.758H68.9329L63.258 23.0645ZM61.0573 13.6773C63.2288 13.6773 64.7348 14.9978 64.7348 16.9212C64.7348 18.8446 63.2288 20.1651 61.0573 20.1651H57.0038V13.6773H61.0573Z" fill="currentColor"/>
<path d="M76.7525 31.0448C78.5765 31.0448 80.2558 30.0975 81.2116 28.5186L81.8772 30.7578H84.3676V15.8301H81.0377V24.4709C81.0377 26.5952 79.6189 28.088 77.6791 28.088C75.768 28.088 74.4359 26.5952 74.4359 24.4709V15.8301H71.1064V24.8441C71.1064 28.4325 73.5385 31.0448 76.7525 31.0448Z" fill="currentColor"/>
<path d="M94.9938 31.045C98.8447 31.045 102.03 28.8633 102.03 25.2462C102.03 21.1985 98.7 20.0215 95.8337 19.0455C93.6041 18.2991 91.6643 17.6102 91.6643 15.8016C91.6643 14.2227 93.1406 13.3902 94.8779 13.3902C96.7023 13.3902 98.0052 14.3375 98.7292 15.9451L102.03 15.3997C100.987 12.2419 98.3524 10.2324 94.7625 10.2324C91.0562 10.2324 88.1027 12.3567 88.1027 15.9739C88.1027 20.0503 91.4326 21.1698 94.299 22.1171C96.4997 22.8348 98.4683 23.5238 98.4683 25.361C98.4683 26.9686 96.992 27.8873 95.023 27.8873C92.7643 27.8873 91.5484 26.8251 90.4773 24.9017L87.1182 25.4759C88.1027 28.892 91.23 31.045 94.9938 31.045Z" fill="currentColor"/>
<path d="M111.089 27.8874C109.96 27.8874 109.41 27.342 109.41 26.2225V18.7012H113.898V15.8305H109.41V11.5244H106.92L106.08 15.8305H103.619V18.7012H106.08V26.2225C106.08 29.1506 107.788 30.7582 111.089 30.7582H113.898L114.187 27.8874H111.089Z" fill="currentColor"/>
<path d="M123.702 31.0448C128.421 31.0448 131.751 27.8296 131.751 23.2939C131.751 18.7581 128.421 15.543 123.702 15.543C118.982 15.543 115.652 18.7581 115.652 23.2939C115.652 27.8296 118.982 31.0448 123.702 31.0448ZM123.702 28.0305C120.98 28.0305 119.127 26.1072 119.127 23.2939C119.127 20.4806 120.98 18.5572 123.702 18.5572C126.424 18.5572 128.276 20.4806 128.276 23.2939C128.276 26.1072 126.424 28.0305 123.702 28.0305Z" fill="currentColor"/>
<path d="M137.975 30.7578V21.9447C137.975 20.05 138.902 18.9878 140.928 18.9878H142.84L142.55 15.8301H141.913C140.147 15.8301 138.786 16.3181 137.772 17.9831L137.136 15.8301H134.646V30.7578H137.975Z" fill="currentColor"/>
<path d="M159.224 23.1216C159.224 18.8156 155.981 15.543 151.407 15.543C146.832 15.543 143.589 18.7869 143.589 23.2939C143.589 27.8009 146.832 31.0448 151.407 31.0448C154.534 31.0448 157.487 29.5807 158.617 26.7387L155.489 26.222C154.766 27.2842 153.376 28.0305 151.61 28.0305C149.062 28.0305 147.382 26.4804 147.063 24.1838H159.166C159.195 23.868 159.224 23.5235 159.224 23.1216ZM151.407 18.4137C153.491 18.4137 155.055 19.7342 155.605 21.6002H147.266C147.817 19.6768 149.38 18.4137 151.407 18.4137Z" fill="currentColor"/>
</g>
<defs>
<clipPath id="clip0_10034_730">
<rect width="159.225" height="40.1467" fill="white"/>
</clipPath>
</defs>
</svg>
